<?xml version="1.0" encoding="UTF-8"?>
<svg id="Layer_1" data-name="Layer 1" xmlns="http://www.w3.org/2000/svg" xmlns:xlink="http://www.w3.org/1999/xlink" viewBox="0 0 110 110">
  <defs>
    <style>
      .cls-1, .cls-2 {
        fill: #fff;
      }

      .cls-3, .cls-4, .cls-5 {
        fill: none;
      }

      .cls-6 {
        fill: url(#linear-gradient-4);
      }

      .cls-7 {
        fill: url(#linear-gradient-5);
      }

      .cls-4 {
        stroke: url(#linear-gradient-2);
      }

      .cls-4, .cls-8, .cls-5 {
        stroke-miterlimit: 10;
        stroke-width: 6px;
      }

      .cls-8 {
        fill: #1578a3;
        stroke: url(#linear-gradient);
      }

      .cls-5 {
        stroke: url(#linear-gradient-3);
      }

      .cls-2 {
        font-family: Coiny-Regular, Coiny;
        font-size: 24px;
      }

      .cls-9 {
        clip-path: url(#clippath);
      }
    </style>
    <clipPath id="clippath">
      <rect class="cls-3" x="-238.98" y="-1160.94" width="1920" height="1080"/>
    </clipPath>
    <linearGradient id="linear-gradient" x1="55" y1="110" x2="55" y2="0" gradientUnits="userSpaceOnUse">
      <stop offset="0" stop-color="#0a4b7a"/>
      <stop offset="1" stop-color="#1578a3"/>
    </linearGradient>
    <linearGradient id="linear-gradient-2" x1="55" y1="6.95" x2="55" y2="0" gradientUnits="userSpaceOnUse">
      <stop offset="0" stop-color="#1578a3"/>
      <stop offset="1" stop-color="#38a4c2"/>
    </linearGradient>
    <linearGradient id="linear-gradient-3" x1="55" y1="110" x2="55" y2="103.05" gradientUnits="userSpaceOnUse">
      <stop offset="0" stop-color="#06335e"/>
      <stop offset="1" stop-color="#0a4b7a"/>
    </linearGradient>
    <linearGradient id="linear-gradient-4" x1="55" y1="104" x2="55" y2="6" xlink:href="#linear-gradient-2"/>
    <linearGradient id="linear-gradient-5" x1="55" y1="106" x2="55" y2="4" xlink:href="#linear-gradient-3"/>
  </defs>
  <g class="cls-9">
    <image width="1536" height="1024" transform="translate(-238.97 -1271.45) scale(1.25)" xlink:href="../Underwater Serenity with Octopuses and Coral.jpg"/>
  </g>
  <g>
    <g>
      <rect class="cls-8" x="3" y="3" width="104" height="104" rx="6.25" ry="6.25"/>
      <path class="cls-4" d="M4.83,4.83c1.12-1.13,2.68-1.83,4.41-1.83h91.51c1.72,0,3.29.7,4.42,1.83"/>
      <path class="cls-5" d="M105.17,105.17c-1.12,1.13-2.68,1.83-4.41,1.83H9.25c-1.72,0-3.29-.7-4.42-1.83"/>
      <g>
        <rect class="cls-6" x="6" y="6" width="98" height="98" rx="3.56" ry="3.56"/>
        <path class="cls-7" d="M100.44,6c1.97,0,3.56,1.6,3.56,3.56v90.87c0,1.97-1.6,3.56-3.56,3.56H9.56c-1.97,0-3.56-1.6-3.56-3.56V9.56c0-1.97,1.59-3.56,3.56-3.56h90.87M100.44,4H9.56c-3.07,0-5.56,2.5-5.56,5.56v90.87c0,3.07,2.5,5.56,5.56,5.56h90.87c3.07,0,5.56-2.5,5.56-5.56V9.56c0-3.07-2.5-5.56-5.56-5.56h0Z"/>
      </g>
    </g>
    <g>
      <path class="cls-1" d="M77.59,49.31c0,.93.75,1.68,1.68,1.68s1.68-.75,1.68-1.68-.75-1.68-1.68-1.68-1.68.75-1.68,1.68Z"/>
      <path class="cls-1" d="M72.88,69.96c-.74,0-1.35.6-1.35,1.35s.6,1.34,1.35,1.34,1.35-.6,1.35-1.34-.6-1.35-1.35-1.35Z"/>
      <path class="cls-1" d="M70.73,74.78c-1.52,0-2.76,1.24-2.76,2.76s1.24,2.76,2.76,2.76,2.76-1.24,2.76-2.76c0-1.52-1.24-2.76-2.76-2.76Z"/>
      <circle class="cls-1" cx="40.26" cy="76.21" r="2.09"/>
      <path class="cls-1" d="M34.95,67.8c-.59,0-1.08.48-1.08,1.08s.48,1.07,1.08,1.07,1.08-.48,1.08-1.07c0-.6-.48-1.08-1.08-1.08Z"/>
      <path class="cls-1" d="M30.04,41.98c.78,0,1.41-.63,1.41-1.41s-.63-1.41-1.41-1.41-1.41.63-1.41,1.41.63,1.41,1.41,1.41Z"/>
      <path class="cls-1" d="M43.83,35.38c1.04,0,1.88-.84,1.88-1.88s-.84-1.88-1.88-1.88-1.88.84-1.88,1.88.84,1.88,1.88,1.88Z"/>
      <path class="cls-1" d="M79.17,60.54c-5.91-2.1-7.07-1.3-9.96-4.04-.69-.65-.67-2.79,3.16-2.29,1.92.25,3.23-.81,3.23-2.32,0-1.01-1.22-2.41-3.03-1.72-2.62,1.01-4.32-.14-4.64-1.41-.4-1.61.05-3.45,6.8-6.83,8.27-4.14,3.53-11.66-2.97-4.57-2.88,3.14-4.24,4.44-6.15,5.45-1.72.9-3.78-.03-2.22-2.12.61-.81,1.63-1.43,1.92-2.42.4-1.41-.78-2.72-1.82-2.72s-2.32.6-2.72,2.12c-.61,2.77-2.15,2.64-2.88,1.83-1.4-1.53-.89-3.31-.65-6.07.28-3.24,2.2-10.73-3.69-10.18-2.84.27-3.68,2.94-2.76,7.73,1.14,5.94-.59,10.08-2.43,10.92-2.22,1.01-3.34.63-8.07-2.62-2.51-1.73-5.29-.21-5.85,1.82-.5,1.79.91,3.94,3.03,4.64,3.26,1.08,4.71,1.33,6.22,2.15,1.48.81,1.66,2.77.19,4.54-1.48,1.77-5.3.31-10.95-.1-9.77-.7-7.57,10.11,1.61,6.93,5.25-1.82,7.46-1.41,8.37-.3,1.26,1.53.39,3.6-2.05,5.08-7.8,4.71.94,10.56,4.17,4.04,1.35-2.73,2.9-3.56,4.44-2.96,1.25.49,2.86,4.87,1.04,10.76-1.62,5.25-1.51,10.9,2.29,10.9,3.54,0,4.1-5.28,3.5-11.03-.22-2.15-.06-5.49,1.61-6.32,1.35-.67,3.45-1.42,4.88,1.55,1.31,2.72,4.14,2.32,5.25.81.81-1.11,1.22-3.56-2.01-4.84-3.85-1.52-2.43-5.66.49-5.25,3.23.45,5.44,1.63,9.28,4.91,5.36,4.57,12.23-2.91,3.36-6.05Z"/>
    </g>
    <text class="cls-2" transform="translate(85.38 27.66)"><tspan x="0" y="0">3</tspan></text>
  </g>
</svg>