<?xml version="1.0" encoding="UTF-8"?>
<svg id="Layer_1" data-name="Layer 1" xmlns="http://www.w3.org/2000/svg" viewBox="0 0 1126.36 326.22">
  <defs>
    <style>
      .cls-1 {
        stroke: #38a4c2;
      }

      .cls-1, .cls-2, .cls-3, .cls-4 {
        stroke-miterlimit: 10;
        stroke-width: 6px;
      }

      .cls-1, .cls-3, .cls-4 {
        fill: none;
      }

      .cls-5 {
        fill: #1578a3;
      }

      .cls-2 {
        fill: #f5e5cb;
      }

      .cls-2, .cls-3 {
        stroke: #06335e;
      }

      .cls-6 {
        fill: #06335e;
      }

      .cls-4 {
        stroke: #1578a3;
      }

      .cls-7 {
        fill: #0a4b7a;
      }
    </style>
  </defs>
  <g>
    <path class="cls-7" d="M1123.18,17.48v291.25c0,7.94-7.24,14.37-16.17,14.37H19.35c-8.93,0-16.17-6.44-16.17-14.37V17.48c0-3.97,1.81-7.56,4.74-10.16l19.26,17.12h1072l19.25-17.11v-.02c2.94,2.6,4.75,6.2,4.75,10.17Z"/>
    <path class="cls-5" d="M1118.43,7.31v.02l-19.25,17.11H27.18L7.92,7.32c2.92-2.6,6.96-4.21,11.43-4.21h1087.66c4.47,0,8.5,1.61,11.42,4.2Z"/>
    <path class="cls-6" d="M7.92,318.9v-.02l19.25-17.11h1072l19.26,17.12c-2.92,2.6-6.96,4.21-11.43,4.21H19.34c-4.47,0-8.5-1.61-11.42-4.2Z"/>
  </g>
  <rect class="cls-2" x="27.18" y="24.44" width="1072" height="277.33"/>
  <g>
    <path class="cls-4" d="M7.92,318.9c-2.93-2.6-4.74-6.19-4.74-10.16V17.48c0-3.97,1.81-7.56,4.74-10.16"/>
    <path class="cls-1" d="M7.92,7.32c2.92-2.6,6.96-4.21,11.43-4.21h1087.66c4.47,0,8.51,1.61,11.43,4.21"/>
    <path class="cls-3" d="M1118.44,318.9c-2.92,2.6-6.96,4.21-11.43,4.21H19.35c-4.47,0-8.51-1.61-11.43-4.21"/>
    <path class="cls-4" d="M1118.44,7.32c2.93,2.6,4.74,6.19,4.74,10.16v291.25c0,3.97-1.81,7.56-4.74,10.16"/>
  </g>
</svg>