<?xml version="1.0" encoding="UTF-8"?>
<svg id="Layer_1" data-name="Layer 1" xmlns="http://www.w3.org/2000/svg" xmlns:xlink="http://www.w3.org/1999/xlink" viewBox="0 0 110 110">
  <defs>
    <style>
      .cls-1, .cls-2 {
        fill: #fff;
      }

      .cls-3, .cls-4, .cls-5 {
        fill: none;
      }

      .cls-6 {
        fill: url(#linear-gradient-4);
      }

      .cls-7 {
        fill: url(#linear-gradient-5);
      }

      .cls-4 {
        stroke: url(#linear-gradient-2);
      }

      .cls-4, .cls-8, .cls-5 {
        stroke-miterlimit: 10;
        stroke-width: 6px;
      }

      .cls-8 {
        fill: #1578a3;
        stroke: url(#linear-gradient);
      }

      .cls-5 {
        stroke: url(#linear-gradient-3);
      }

      .cls-2 {
        font-family: Coiny-Regular, Coiny;
        font-size: 24px;
      }

      .cls-9 {
        clip-path: url(#clippath);
      }
    </style>
    <clipPath id="clippath">
      <rect class="cls-3" x="-481.98" y="-1160.94" width="1920" height="1080"/>
    </clipPath>
    <linearGradient id="linear-gradient" x1="55" y1="110" x2="55" y2="0" gradientUnits="userSpaceOnUse">
      <stop offset="0" stop-color="#0a4b7a"/>
      <stop offset="1" stop-color="#1578a3"/>
    </linearGradient>
    <linearGradient id="linear-gradient-2" x1="55" y1="6.95" x2="55" y2="0" gradientUnits="userSpaceOnUse">
      <stop offset="0" stop-color="#1578a3"/>
      <stop offset="1" stop-color="#38a4c2"/>
    </linearGradient>
    <linearGradient id="linear-gradient-3" x1="55" y1="110" x2="55" y2="103.05" gradientUnits="userSpaceOnUse">
      <stop offset="0" stop-color="#06335e"/>
      <stop offset="1" stop-color="#0a4b7a"/>
    </linearGradient>
    <linearGradient id="linear-gradient-4" x1="55" y1="104" x2="55" y2="6" xlink:href="#linear-gradient-2"/>
    <linearGradient id="linear-gradient-5" x1="55" y1="106" x2="55" y2="4" xlink:href="#linear-gradient-3"/>
  </defs>
  <g class="cls-9">
    <image width="1536" height="1024" transform="translate(-481.97 -1271.45) scale(1.25)" xlink:href="../Underwater Serenity with Octopuses and Coral.jpg"/>
  </g>
  <g>
    <g>
      <rect class="cls-8" x="3" y="3" width="104" height="104" rx="6.25" ry="6.25"/>
      <path class="cls-4" d="M4.83,4.83c1.12-1.13,2.68-1.83,4.41-1.83h91.51c1.72,0,3.29.7,4.42,1.83"/>
      <path class="cls-5" d="M105.17,105.17c-1.12,1.13-2.68,1.83-4.41,1.83H9.25c-1.72,0-3.29-.7-4.42-1.83"/>
      <g>
        <rect class="cls-6" x="6" y="6" width="98" height="98" rx="3.56" ry="3.56"/>
        <path class="cls-7" d="M100.44,6c1.97,0,3.56,1.6,3.56,3.56v90.87c0,1.97-1.6,3.56-3.56,3.56H9.56c-1.97,0-3.56-1.6-3.56-3.56V9.56c0-1.97,1.59-3.56,3.56-3.56h90.87M100.44,4H9.56c-3.07,0-5.56,2.5-5.56,5.56v90.87c0,3.07,2.5,5.56,5.56,5.56h90.87c3.07,0,5.56-2.5,5.56-5.56V9.56c0-3.07-2.5-5.56-5.56-5.56h0Z"/>
      </g>
    </g>
    <path class="cls-1" d="M84,51.23c-.43-.22-.75-.62-.88-1.09-.12-.47-.05-.97.22-1.38,1.42-2.21,1.59-5.11.18-7.55-1.41-2.44-4-3.74-6.63-3.62-.49.02-.96-.16-1.3-.5-.35-.34-.53-.82-.51-1.3.12-2.63-1.18-5.22-3.62-6.63-2.43-1.41-5.34-1.24-7.55.18-.41.26-.91.34-1.38.21-.47-.13-.86-.44-1.09-.87-1.21-2.33-3.64-3.93-6.45-3.93s-5.24,1.6-6.45,3.93c-.23.43-.62.75-1.09.87-.47.13-.97.05-1.38-.21-2.21-1.42-5.11-1.59-7.55-.18-2.43,1.41-3.74,4-3.62,6.63.02.49-.16.96-.51,1.3-.35.34-.82.53-1.3.5-2.62-.12-5.22,1.18-6.63,3.62-1.41,2.43-1.24,5.33.18,7.55.26.41.34.91.21,1.38-.12.47-.44.87-.88,1.09-2.33,1.21-3.93,3.63-3.93,6.45s1.58,5.21,3.88,6.42c2.52,1.33,4.98,2.94,7.2,4.73l9.72,7.83c1.88,1.51,2.62,4.04,1.86,6.33-.18.53-.09,1.11.24,1.56.32.45.85.72,1.4.72h17.25c.56,0,1.08-.27,1.4-.72.32-.45.41-1.03.24-1.56-.76-2.29-.02-4.81,1.86-6.32l9.7-7.81c2.24-1.81,4.67-3.4,7.22-4.74,2.31-1.22,3.89-3.63,3.89-6.42,0-2.81-1.6-5.24-3.94-6.45ZM45.4,64.05c-.37.24-.85.17-1.14-.14l-11.28-12.2c-.86-.93-.8-2.38.13-3.23.93-.86,2.38-.8,3.23.13.09.09.17.2.24.3l9.08,13.91c.27.41.15.96-.26,1.23ZM49.71,63.34c-.44.1-.88-.16-1.02-.58l-7.52-21.81c-.41-1.19.22-2.49,1.41-2.9,1.19-.41,2.49.22,2.9,1.42.03.08.06.18.07.27l4.83,22.56c.1.48-.2.95-.68,1.05ZM57.28,38.09l-1.39,24.44c-.03.49-.45.86-.94.84-.45-.03-.81-.39-.84-.84l-1.39-24.44c-.07-1.26.89-2.34,2.15-2.41,1.26-.07,2.34.89,2.41,2.15,0,.09,0,.18,0,.26ZM61.31,62.76c-.16.46-.66.71-1.13.55-.43-.15-.67-.59-.58-1.03l4.83-22.56c.26-1.23,1.48-2.02,2.71-1.76,1.23.26,2.02,1.48,1.76,2.71-.02.09-.05.18-.08.27l-7.52,21.81ZM77.26,51.41c-.07.11-.16.21-.24.3l-11.28,12.2c-.33.36-.9.38-1.26.05-.32-.3-.37-.78-.14-1.14l9.08-13.91c.69-1.06,2.11-1.36,3.17-.67,1.06.69,1.36,2.11.67,3.17Z"/>
    <text class="cls-2" transform="translate(85.7 27.66)"><tspan x="0" y="0">5</tspan></text>
  </g>
</svg>