<?xml version="1.0" encoding="UTF-8"?>
<svg id="Layer_1" data-name="Layer 1" xmlns="http://www.w3.org/2000/svg" xmlns:xlink="http://www.w3.org/1999/xlink" viewBox="0 0 110 110">
  <defs>
    <style>
      .cls-1, .cls-2 {
        fill: #fff;
      }

      .cls-3 {
        stroke: #fff;
      }

      .cls-3, .cls-4, .cls-5, .cls-6 {
        fill: none;
      }

      .cls-3, .cls-5, .cls-7, .cls-6 {
        stroke-miterlimit: 10;
      }

      .cls-8 {
        fill: url(#linear-gradient-4);
      }

      .cls-9 {
        fill: url(#linear-gradient-5);
      }

      .cls-5 {
        stroke: url(#linear-gradient-2);
      }

      .cls-5, .cls-7, .cls-6 {
        stroke-width: 6px;
      }

      .cls-7 {
        fill: #1578a3;
        stroke: url(#linear-gradient);
      }

      .cls-6 {
        stroke: url(#linear-gradient-3);
      }

      .cls-2 {
        font-family: Coiny-Regular, Coiny;
        font-size: 24px;
      }

      .cls-10 {
        clip-path: url(#clippath);
      }
    </style>
    <clipPath id="clippath">
      <rect class="cls-4" x="-118.34" y="-1160.94" width="1920" height="1080"/>
    </clipPath>
    <linearGradient id="linear-gradient" x1="55" y1="110" x2="55" y2="0" gradientUnits="userSpaceOnUse">
      <stop offset="0" stop-color="#0a4b7a"/>
      <stop offset="1" stop-color="#1578a3"/>
    </linearGradient>
    <linearGradient id="linear-gradient-2" x1="55" y1="6.95" x2="55" y2="0" gradientUnits="userSpaceOnUse">
      <stop offset="0" stop-color="#1578a3"/>
      <stop offset="1" stop-color="#38a4c2"/>
    </linearGradient>
    <linearGradient id="linear-gradient-3" x1="55" y1="110" x2="55" y2="103.05" gradientUnits="userSpaceOnUse">
      <stop offset="0" stop-color="#06335e"/>
      <stop offset="1" stop-color="#0a4b7a"/>
    </linearGradient>
    <linearGradient id="linear-gradient-4" x1="55" y1="104" x2="55" y2="6" xlink:href="#linear-gradient-2"/>
    <linearGradient id="linear-gradient-5" x1="55" y1="106" x2="55" y2="4" xlink:href="#linear-gradient-3"/>
  </defs>
  <g class="cls-10">
    <image width="1536" height="1024" transform="translate(-118.33 -1271.45) scale(1.25)" xlink:href="../Underwater Serenity with Octopuses and Coral.jpg"/>
  </g>
  <g>
    <g>
      <rect class="cls-7" x="3" y="3" width="104" height="104" rx="6.25" ry="6.25"/>
      <path class="cls-5" d="M4.83,4.83c1.12-1.13,2.68-1.83,4.41-1.83h91.51c1.72,0,3.29.7,4.42,1.83"/>
      <path class="cls-6" d="M105.17,105.17c-1.12,1.13-2.68,1.83-4.41,1.83H9.25c-1.72,0-3.29-.7-4.42-1.83"/>
      <g>
        <rect class="cls-8" x="6" y="6" width="98" height="98" rx="3.56" ry="3.56"/>
        <path class="cls-9" d="M100.44,6c1.97,0,3.56,1.6,3.56,3.56v90.87c0,1.97-1.59,3.56-3.56,3.56H9.56c-1.97,0-3.56-1.6-3.56-3.56V9.56c0-1.97,1.6-3.56,3.56-3.56h90.87M100.44,4H9.56c-3.07,0-5.56,2.5-5.56,5.56v90.87c0,3.07,2.5,5.56,5.56,5.56h90.87c3.07,0,5.56-2.5,5.56-5.56V9.56c0-3.07-2.5-5.56-5.56-5.56h0Z"/>
      </g>
    </g>
    <g>
      <path class="cls-1" d="M60.21,71c-4.57-.7-5.81-3.56-6.5-4.9-.41-.8,0-1.67.43-2.26,1.59-2.22,2.44-4.7,2.44-7.17,0-6.47-5.24-11.74-11.69-11.74s-11.69,5.27-11.69,11.74c0,2.47.84,4.95,2.44,7.17.42.59.84,1.46.43,2.26-.69,1.34-1.6,3.8-6.75,5.08-4.7,1.17-8.21.55-8.21,2.14,0,1.86,5.16,2.86,8.92,2.86,1.05,0,3.79-.25,4.63-.54,0,.36-.33,1.94-2.12,4.28-1.44,1.87-4.06,3.42-3.56,4.74.46,1.09,5.97.7,9.04-1.4,2.72-1.45,4.48-3.88,5.77-5.65.35-.48.8-1.1,1.11-1.44.31.34.76.96,1.11,1.44,1.29,1.77,2.75,3.28,5.38,4.89,2.97,1.82,8.48,3.16,8.95,2.07.79-1.44-1.72-2.2-3.29-4.58-1.33-2.01-1.82-3.92-1.9-4.35,1.29.31,2.92.51,5.12.47,2.76-.04,7.84-1.55,7.84-3.23,0-1.45-2.09-1-7.89-1.89ZM40.98,59.57c-.85,0-1.54-.7-1.54-1.57s.69-1.57,1.54-1.57,1.54.7,1.54,1.57-.69,1.57-1.54,1.57ZM48.8,59.59c-.86,0-1.56-.71-1.56-1.58s.7-1.58,1.56-1.58,1.56.71,1.56,1.58c0,.87-.7,1.58-1.56,1.58Z"/>
      <path class="cls-3" d="M81.01,50.83c-4.57-.7-5.81-3.56-6.5-4.9-.41-.8,0-1.67.43-2.26,1.59-2.22,2.44-4.7,2.44-7.17,0-6.47-5.24-11.74-11.69-11.74s-11.69,5.27-11.69,11.74c0,2.47.84,4.95,2.44,7.17.42.59.84,1.46.43,2.26-.69,1.34-1.6,3.8-6.75,5.08-4.7,1.17-8.21.55-8.21,2.14,0,1.86,5.16,2.86,8.92,2.86,1.05,0,3.79-.25,4.63-.54,0,.36-.33,1.94-2.12,4.28-1.44,1.87-4.06,3.42-3.56,4.74.46,1.09,5.97.7,9.04-1.4,2.72-1.45,4.48-3.88,5.77-5.65.35-.48.8-1.1,1.11-1.44.31.34.76.96,1.11,1.44,1.29,1.77,2.75,3.28,5.38,4.89,2.97,1.82,8.48,3.16,8.95,2.07.79-1.44-1.72-2.2-3.29-4.58-1.33-2.01-1.82-3.92-1.9-4.35,1.29.31,2.92.51,5.12.47,2.76-.04,7.84-1.55,7.84-3.23,0-1.45-2.09-1-7.89-1.89ZM61.78,39.4c-.85,0-1.54-.7-1.54-1.57s.69-1.57,1.54-1.57,1.54.7,1.54,1.57-.69,1.57-1.54,1.57ZM69.59,39.42c-.86,0-1.56-.71-1.56-1.58s.7-1.58,1.56-1.58,1.56.71,1.56,1.58c0,.87-.7,1.58-1.56,1.58Z"/>
    </g>
    <text class="cls-2" transform="translate(85.57 27.66)"><tspan x="0" y="0">2</tspan></text>
  </g>
</svg>